<svg width="25" height="24" viewBox="0 0 25 24" fill="none" xmlns="http://www.w3.org/2000/svg">
<g clip-path="url(#clip0_927_7205)">
<rect width="24" height="24" transform="translate(0.759033)" fill="#252627"/>
<g clip-path="url(#clip1_927_7205)">
<g clip-path="url(#clip2_927_7205)">
<path d="M22.551 18.7035C22.188 19.542 21.7584 20.3139 21.2607 21.0235C20.5822 21.9908 20.0266 22.6605 19.5985 23.0323C18.9348 23.6426 18.2237 23.9552 17.4623 23.973C16.9156 23.973 16.2564 23.8175 15.489 23.5019C14.7191 23.1878 14.0116 23.0323 13.3646 23.0323C12.6861 23.0323 11.9584 23.1878 11.1801 23.5019C10.4006 23.8175 9.77259 23.9819 9.29245 23.9982C8.56225 24.0293 7.83443 23.7078 7.10793 23.0323C6.64424 22.6279 6.06426 21.9345 5.36947 20.9524C4.62401 19.9035 4.01114 18.6872 3.53101 17.3006C3.0168 15.8029 2.75903 14.3526 2.75903 12.9484C2.75903 11.3401 3.10658 9.95284 3.8027 8.79035C4.3498 7.8566 5.07763 7.12003 5.98856 6.57931C6.89949 6.03858 7.88376 5.76304 8.94372 5.74541C9.52371 5.74541 10.2843 5.92481 11.2294 6.27739C12.1719 6.63116 12.7771 6.81056 13.0424 6.81056C13.2408 6.81056 13.913 6.60079 15.0527 6.18258C16.1305 5.79474 17.0401 5.63415 17.7852 5.69741C19.8044 5.86037 21.3214 6.65634 22.3303 8.09037C20.5244 9.18456 19.6311 10.7171 19.6489 12.6831C19.6652 14.2145 20.2207 15.4888 21.3125 16.5006C21.8073 16.9703 22.3599 17.3332 22.9747 17.591C22.8414 17.9776 22.7006 18.348 22.551 18.7035ZM17.92 0.480381C17.92 1.68066 17.4815 2.80135 16.6075 3.83865C15.5527 5.0718 14.2769 5.78437 12.8934 5.67193C12.8757 5.52793 12.8655 5.37638 12.8655 5.21713C12.8655 4.06487 13.3671 2.83172 14.2579 1.82345C14.7027 1.31295 15.2683 0.888472 15.9542 0.54986C16.6386 0.216299 17.286 0.0318332 17.8948 0.000244141C17.9126 0.160702 17.92 0.32117 17.92 0.480365V0.480381Z" fill="white"/>
</g>
</g>
</g>
<defs>
<clipPath id="clip0_927_7205">
<rect width="24" height="24" fill="white" transform="translate(0.759033)"/>
</clipPath>
<clipPath id="clip1_927_7205">
<rect width="24" height="24" fill="white" transform="translate(0.759033)"/>
</clipPath>
<clipPath id="clip2_927_7205">
<rect width="24" height="24" fill="white" transform="translate(0.759033)"/>
</clipPath>
</defs>
</svg>
