<svg width="25" height="24" viewBox="0 0 25 24" fill="none" xmlns="http://www.w3.org/2000/svg">
<g clip-path="url(#clip0_927_7211)">
<rect width="24" height="24" transform="translate(0.259033)" fill="white"/>
<g clip-path="url(#clip1_927_7211)">
<path d="M12.2588 9.81812V14.4654H18.717C18.4334 15.9599 17.5823 17.2254 16.306 18.0763L20.2005 21.0982C22.4696 19.0037 23.7787 15.9273 23.7787 12.2728C23.7787 11.4219 23.7024 10.6036 23.5605 9.81825L12.2588 9.81812Z" fill="#4285F4"/>
<path d="M5.53365 14.2839L4.65528 14.9563L1.54614 17.3781C3.52068 21.2944 7.56766 23.9999 12.2585 23.9999C15.4984 23.9999 18.2148 22.9308 20.2003 21.0981L16.3057 18.0763C15.2367 18.7963 13.873 19.2327 12.2585 19.2327C9.13855 19.2327 6.48771 17.1273 5.53855 14.2909L5.53365 14.2839Z" fill="#34A853"/>
<path d="M1.54621 6.62183C0.728075 8.23631 0.259033 10.0581 0.259033 11.9999C0.259033 13.9417 0.728075 15.7636 1.54621 17.378C1.54621 17.3889 5.53901 14.2799 5.53901 14.2799C5.29901 13.5599 5.15715 12.7963 5.15715 11.9998C5.15715 11.2033 5.29901 10.4398 5.53901 9.71976L1.54621 6.62183Z" fill="#FBBC05"/>
<path d="M12.2588 4.77818C14.0261 4.77818 15.597 5.38907 16.8515 6.56727L20.2878 3.13095C18.2042 1.18917 15.4988 0 12.2588 0C7.5679 0 3.52068 2.69454 1.54614 6.62183L5.53882 9.72001C6.48785 6.88362 9.13879 4.77818 12.2588 4.77818Z" fill="#EA4335"/>
</g>
</g>
<defs>
<clipPath id="clip0_927_7211">
<rect width="24" height="24" fill="white" transform="translate(0.259033)"/>
</clipPath>
<clipPath id="clip1_927_7211">
<rect width="24" height="24" fill="white" transform="translate(0.259033)"/>
</clipPath>
</defs>
</svg>
