<svg width="136" height="32" viewBox="0 0 136 32" fill="none" xmlns="http://www.w3.org/2000/svg">
<path d="M94.273 7.57837V11.3425H89.1625V26.866H84.4642V11.3425H79.3538V7.57837H94.273Z" fill="#1E1E1E"/>
<path d="M72.3111 26.866L68.2997 19.5851H67.1732V26.866H62.4749V7.57837H70.3603C71.8806 7.57837 73.172 7.84396 74.2344 8.37515C75.3151 8.90634 76.121 9.63902 76.6522 10.5732C77.1834 11.489 77.449 12.5148 77.449 13.6504C77.449 14.9326 77.0827 16.0774 76.35 17.0848C75.6356 18.0922 74.5732 18.8066 73.1628 19.2279L77.6139 26.866H72.3111ZM67.1732 16.2606H70.0856C70.9465 16.2606 71.5876 16.0499 72.0089 15.6286C72.4485 15.2073 72.6683 14.612 72.6683 13.8427C72.6683 13.1101 72.4485 12.5331 72.0089 12.1118C71.5876 11.6905 70.9465 11.4799 70.0856 11.4799H67.1732V16.2606Z" fill="#1E1E1E"/>
<path d="M54.2238 23.4591H47.0252L45.8712 26.866H40.9531L47.9319 7.57837H53.3721L60.3508 26.866H55.3778L54.2238 23.4591ZM53.0149 19.8323L50.6245 12.7712L48.2616 19.8323H53.0149Z" fill="#1E1E1E"/>
<path d="M38.825 7.57837V26.866H34.1267V18.9257H26.8182V26.866H22.1199V7.57837H26.8182V15.1341H34.1267V7.57837H38.825Z" fill="#1E1E1E"/>
<path d="M0.394287 17.1948C0.394287 15.2898 0.80642 13.5955 1.63069 12.1119C2.45495 10.6099 3.59976 9.44676 5.06512 8.62251C6.5488 7.77993 8.22481 7.35864 10.0931 7.35864C12.3828 7.35864 14.3427 7.9631 15.9729 9.17201C17.6031 10.3809 18.693 12.0294 19.2425 14.1176H14.0771C13.6924 13.3116 13.1429 12.698 12.4286 12.2767C11.7325 11.8554 10.9357 11.6448 10.0382 11.6448C8.59115 11.6448 7.41886 12.1485 6.52133 13.1559C5.62379 14.1634 5.17503 15.5096 5.17503 17.1948C5.17503 18.8799 5.62379 20.2262 6.52133 21.2337C7.41886 22.2411 8.59115 22.7448 10.0382 22.7448C10.9357 22.7448 11.7325 22.5342 12.4286 22.1129C13.1429 21.6916 13.6924 21.078 14.0771 20.272H19.2425C18.693 22.3602 17.6031 24.0087 15.9729 25.2176C14.3427 26.4082 12.3828 27.0035 10.0931 27.0035C8.22481 27.0035 6.5488 26.5913 5.06512 25.7671C3.59976 24.9245 2.45495 23.7614 1.63069 22.2777C0.80642 20.7941 0.394287 19.0997 0.394287 17.1948Z" fill="#1E1E1E"/>
<g clip-path="url(#clip0_1271_14083)">
<path d="M124.297 13.5891C124.287 9.3551 120.861 5.93091 116.645 5.94095C112.428 5.95098 109.019 9.39144 109.029 13.6254C109.037 17.2505 111.55 20.282 114.919 21.0726L114.933 27.0606C108.304 26.2095 103.173 20.5307 103.157 13.6394C103.139 6.1485 109.171 0.0615355 116.631 0.0437817C124.09 0.0260279 130.151 6.08421 130.169 13.5751C130.18 18.1692 127.915 22.2353 124.441 24.6971L120.122 20.4434C122.605 19.1736 124.304 16.5792 124.297 13.5891Z" fill="#2BB368"/>
<rect width="4.90126" height="17.8319" rx="2.45063" transform="matrix(0.70542 -0.70879 0.708786 0.705424 114.829 15.2202)" fill="#2BB368"/>
<ellipse cx="132.663" cy="29.474" rx="2.45569" ry="2.4557" transform="rotate(-0.136369 132.663 29.474)" fill="#1E1E1E"/>
</g>
<defs>
<clipPath id="clip0_1271_14083">
<rect width="32.0003" height="32" fill="white" transform="translate(103.124)"/>
</clipPath>
</defs>
</svg>
