<svg width="24" height="24" viewBox="0 0 24 24" fill="none" xmlns="http://www.w3.org/2000/svg">
<path d="M16.5 9C17.8807 9 19 7.88071 19 6.5C19 5.11929 17.8807 4 16.5 4C15.1193 4 14 5.11929 14 6.5C14 7.88071 15.1193 9 16.5 9Z" fill="#E21A1A"/>
<path fill-rule="evenodd" clip-rule="evenodd" d="M8.51001 17.5H15.49V19C15.49 20.9284 13.9284 22.49 12 22.49C10.0716 22.49 8.51001 20.9284 8.51001 19V17.5ZM13.99 19C13.99 19.5988 13.7263 20.1354 13.3085 20.5C12.9588 20.8052 12.5012 20.99 12 20.99C11.4988 20.99 11.0412 20.8052 10.6915 20.5C10.2737 20.1354 10.01 19.5988 10.01 19H13.99Z" fill="black"/>
<path d="M10.9014 4.61777L10.8175 4.63594C8.35301 5.16965 6.5 7.3708 6.5 9.99992V16.6212L5.62132 17.4999H18.3787L17.5 16.6212V10.5C17.8273 10.4268 18.5836 10.1524 18.9909 9.64024C18.9969 9.75937 19 9.87929 19 9.99992V15.9999L21 17.9999V18.9999H3V17.9999L5 15.9999V9.99992C5 6.64992 7.36 3.84992 10.5 3.16992C10.5 3.16992 11 3 12 3C13 3 13.5 3.16992 13.5 3.16992C13.6963 3.21244 13.8896 3.26325 14.0795 3.32196C13.743 3.57952 13.1355 4.25715 12.8737 4.56376C12.7055 4.53519 12.4146 4.5 12 4.5C11.5854 4.5 11.2945 4.53519 11.1263 4.56376C11.042 4.57808 10.988 4.59083 10.9642 4.5969L10.9582 4.59846L10.9014 4.61777Z" fill="#252525"/>
</svg>
