<svg width="24" height="24" viewBox="0 0 24 24" fill="none" xmlns="http://www.w3.org/2000/svg">
<path fill-rule="evenodd" clip-rule="evenodd" d="M8.51001 17.5H15.49V19C15.49 20.9284 13.9284 22.49 12 22.49C10.0716 22.49 8.51001 20.9284 8.51001 19V17.5ZM13.99 19C13.99 19.5988 13.7263 20.1354 13.3085 20.5C12.9588 20.8052 12.5012 20.99 12 20.99C11.4988 20.99 11.0412 20.8052 10.6915 20.5C10.2737 20.1354 10.01 19.5988 10.01 19H13.99Z" fill="#252525"/>
<path fill-rule="evenodd" clip-rule="evenodd" d="M10.9014 4.61777L10.8175 4.63594C8.35301 5.16965 6.5 7.3708 6.5 9.99992V16.6212L5.62132 17.4999H18.3787L17.5 16.6212V9.99992C17.5 7.3708 15.647 5.16965 13.1825 4.63594L13.0986 4.61777L13.0418 4.59846C13.0401 4.59801 13.0381 4.59748 13.0358 4.5969C13.012 4.59083 12.958 4.57808 12.8737 4.56376C12.7055 4.53519 12.4146 4.5 12 4.5C11.5854 4.5 11.2945 4.53519 11.1263 4.56376C11.042 4.57808 10.988 4.59083 10.9642 4.5969C10.9619 4.59748 10.9599 4.59801 10.9582 4.59846L10.9014 4.61777ZM21 17.9999V18.9999H3V17.9999L5 15.9999V9.99992C5 6.64992 7.36 3.84992 10.5 3.16992C10.5 3.16992 11 3 12 3C13 3 13.5 3.16992 13.5 3.16992C16.64 3.84992 19 6.64992 19 9.99992V15.9999L21 17.9999Z" fill="#252525"/>
</svg>
