<svg width="24" height="24" viewBox="0 0 24 24" fill="none" xmlns="http://www.w3.org/2000/svg">
<g clip-path="url(#clip0_1629_12015)">
<path d="M11.1667 17H12.8334V15.3333H11.1667V17ZM12 7C10.1584 7 8.66669 8.49167 8.66669 10.3333H10.3334C10.3334 9.41667 11.0834 8.66667 12 8.66667C12.9167 8.66667 13.6667 9.41667 13.6667 10.3333C13.6667 12 11.1667 11.7917 11.1667 14.5H12.8334C12.8334 12.625 15.3334 12.4167 15.3334 10.3333C15.3334 8.49167 13.8417 7 12 7Z" fill="#252525"/>
<path fill-rule="evenodd" clip-rule="evenodd" d="M12 20.5C16.6944 20.5 20.5 16.6944 20.5 12C20.5 7.30558 16.6944 3.5 12 3.5C7.30558 3.5 3.5 7.30558 3.5 12C3.5 16.6944 7.30558 20.5 12 20.5ZM12 22C17.5228 22 22 17.5228 22 12C22 6.47715 17.5228 2 12 2C6.47715 2 2 6.47715 2 12C2 17.5228 6.47715 22 12 22Z" fill="#252525"/>
</g>
<defs>
<clipPath id="clip0_1629_12015">
<rect width="24" height="24" fill="white"/>
</clipPath>
</defs>
</svg>
