<svg width="25" height="24" viewBox="0 0 24 24" fill="none" xmlns="http://www.w3.org/2000/svg">
<path d="M20.549 6.81969L14.789 2.78969C13.219 1.68969 10.809 1.74969 9.29902 2.91969L4.28902 6.82969C3.28902 7.60969 2.49902 9.20969 2.49902 10.4697V17.3697C2.49902 19.9197 4.56902 21.9997 7.11902 21.9997H17.899C20.449 21.9997 22.519 19.9297 22.519 17.3797V10.5997C22.519 9.24969 21.649 7.58969 20.549 6.81969ZM13.259 17.9997C13.259 18.4097 12.919 18.7497 12.509 18.7497C12.099 18.7497 11.759 18.4097 11.759 17.9997V14.9997C11.759 14.5897 12.099 14.2497 12.509 14.2497C12.919 14.2497 13.259 14.5897 13.259 14.9997V17.9997Z" fill="#2BB368"/>
</svg>
