<svg width="24" height="24" viewBox="0 0 24 24" fill="none" xmlns="http://www.w3.org/2000/svg">
<path d="M13.8783 3.36298L13.8787 3.36325L19.6386 7.39316C20.0755 7.699 20.5005 8.21004 20.817 8.81615C21.1334 9.42224 21.31 10.0637 21.31 10.5997V17.3797C21.31 19.5431 19.5534 21.2997 17.39 21.2997H6.60999C4.44856 21.2997 2.68999 19.5351 2.68999 17.3697V10.4697C2.68999 9.97348 2.84953 9.36477 3.138 8.7789C3.42627 8.19342 3.81349 7.69132 4.21051 7.38164L4.21066 7.38153L9.21873 3.47303C9.21903 3.4728 9.21932 3.47257 9.21962 3.47234C10.4872 2.4909 12.5599 2.43926 13.8783 3.36298Z" stroke="#252525" stroke-width="1.4" stroke-linecap="round"/>
<path fill-rule="evenodd" clip-rule="evenodd" d="M12.0313 14.3135C12.4179 14.3135 12.7313 14.6269 12.7313 15.0135V18.1055C12.7313 18.4921 12.4179 18.8055 12.0313 18.8055C11.6447 18.8055 11.3313 18.4921 11.3313 18.1055V15.0135C11.3313 14.6269 11.6447 14.3135 12.0313 14.3135Z" fill="#252525"/>
</svg>
