<svg width="24" height="24" viewBox="0 0 24 24" fill="none" xmlns="http://www.w3.org/2000/svg">
<path d="M14.6283 3.36298L14.6287 3.36325L20.3886 7.39316C20.8255 7.699 21.2505 8.21004 21.567 8.81615C21.8834 9.42224 22.06 10.0637 22.06 10.5997V17.3797C22.06 19.5431 20.3034 21.2997 18.14 21.2997H7.35999C5.19856 21.2997 3.43999 19.5351 3.43999 17.3697V10.4697C3.43999 9.97348 3.59953 9.36477 3.888 8.7789C4.17627 8.19342 4.56349 7.69132 4.96051 7.38164L4.96066 7.38153L9.96873 3.47303C9.96903 3.4728 9.96932 3.47257 9.96962 3.47234C11.2372 2.4909 13.3099 2.43926 14.6283 3.36298Z" stroke="#252525" stroke-width="1.4" stroke-linecap="round"/>
</svg>
