<svg width="24" height="24" viewBox="0 0 24 24" fill="none" xmlns="http://www.w3.org/2000/svg">
<g clip-path="url(#clip0_1446_6085)">
<path d="M3.25 7.725C3.25 4.83931 5.58931 2.5 8.475 2.5H16.25H17.025C19.9107 2.5 22.25 4.83931 22.25 7.725V8.5V16.275C22.25 19.1607 19.9107 21.5 17.025 21.5H8.475C5.58931 21.5 3.25 19.1607 3.25 16.275V7.725Z" fill="#2BB368"/>
<path d="M8.27591 10.4333C7.82835 10.8783 7.57561 11.4724 7.55806 12.1014L7.4581 16.1396C7.44266 16.7635 7.94426 17.2777 8.56841 17.2777H12.5619C13.2149 17.2777 13.8292 17.0254 14.2925 16.5628L24.531 6.32275L21.7464 3.5381L18.4643 0.257812L8.27591 10.4333Z" fill="white"/>
<path d="M16.9324 3.95721L18.9643 5.98554L20.8678 7.88902L21.5901 7.14635C22.3375 6.39894 22.3375 5.1847 21.5901 4.43849L20.386 3.23546C19.6373 2.48925 18.4018 2.46986 17.6543 3.21608L16.9324 3.95721Z" fill="#2BB368"/>
<path d="M9.45942 11.4389C9.17413 11.7227 9.01302 12.1013 9.00184 12.5023L8.92017 15.8018H12.1915C12.6077 15.8018 12.9992 15.641 13.2946 15.3461L19.6946 8.94605L17.9196 7.17103L15.8275 5.08008L9.45942 11.4389Z" fill="#2BB368"/>
</g>
<defs>
<clipPath id="clip0_1446_6085">
<rect width="24" height="24" fill="white" transform="translate(0.75)"/>
</clipPath>
</defs>
</svg>
