<svg width="25" height="24" viewBox="0 0 25 24" fill="none" xmlns="http://www.w3.org/2000/svg">
<path fill-rule="evenodd" clip-rule="evenodd" d="M7.86209 12.1942L7.76893 15.9042C7.76493 16.1022 7.84005 16.2932 7.97828 16.4352C8.1175 16.5782 8.30781 16.6582 8.50614 16.6582H12.1922C12.9584 16.6582 13.6796 16.3602 14.2225 15.8182L21.6066 8.4461C22.1895 7.86509 22.509 7.09208 22.509 6.27006C22.509 5.45005 22.1895 4.67604 21.6066 4.09503L20.4096 2.90001C19.2076 1.7 17.2534 1.7 16.0525 2.90001L8.70246 10.2381C8.1796 10.7601 7.88112 11.4551 7.86209 12.1942ZM9.3365 12.2312C9.34651 11.8721 9.49075 11.5331 9.74617 11.2791L15.4475 5.58605L17.3205 7.45808C17.4648 7.60108 17.6531 7.67308 17.8424 7.67308C18.0307 7.67308 18.22 7.60108 18.3643 7.45808C18.6517 7.16908 18.6517 6.70407 18.3643 6.41607L16.4902 4.54504L17.0952 3.94103C17.7212 3.31602 18.7399 3.31602 19.3669 3.94103L20.5639 5.13705C21.1899 5.76206 21.1899 6.77907 20.5639 7.40508L13.1798 14.7772C12.9153 15.0412 12.5648 15.1852 12.1922 15.1852H9.26338L9.3365 12.2312ZM3.24744 12.4431C3.65411 12.4431 3.98465 12.1131 3.98465 11.707V7.93799C3.98465 5.24795 5.62633 3.50992 8.16748 3.50992H11.8445C12.2522 3.50992 12.5827 3.18092 12.5827 2.77391C12.5827 2.36791 12.2522 2.0379 11.8445 2.0379H8.16748C4.78295 2.0379 2.50923 4.40894 2.50923 7.93799V11.707C2.50923 12.1131 2.83977 12.4431 3.24744 12.4431ZM21.7675 11.4098C21.3599 11.4098 21.0303 11.7388 21.0303 12.1459V16.0999C21.0303 18.79 19.3876 20.527 16.8455 20.527H8.16728C5.62613 20.527 3.98545 18.79 3.98545 16.0999C3.98545 15.6939 3.65491 15.3639 3.24724 15.3639C2.84058 15.3639 2.50903 15.6939 2.50903 16.0999C2.50903 19.629 4.78275 22 8.16728 22H16.8455C20.231 22 22.5047 19.629 22.5047 16.0999V12.1459C22.5047 11.7388 22.1742 11.4098 21.7675 11.4098Z" fill="#252525"/>
</svg>
