<svg width="24" height="24" viewBox="0 0 24 24" fill="none" xmlns="http://www.w3.org/2000/svg">
<g clip-path="url(#clip0_1504_8489)">
<path d="M18.7742 11.9396H18.7142V11.9996C18.7142 15.7078 15.7081 18.7138 12 18.7138C8.29183 18.7138 5.28578 15.7078 5.28578 11.9996C5.28578 8.29146 8.29183 5.28542 12 5.28542C13.8789 5.28542 15.5762 6.05604 16.7959 7.30069L16.8379 7.34354L16.8807 7.30155L18.0419 6.16365L18.0848 6.12165L18.0428 6.0788C16.5083 4.51287 14.367 3.53961 12 3.53961C7.32765 3.53961 3.53998 7.32728 3.53998 11.9996C3.53998 16.6719 7.32765 20.4596 12 20.4596C16.6723 20.4596 20.46 16.6719 20.46 11.9996V11.9396H20.4H18.7742Z" fill="#252525" stroke="#252525" stroke-width="0.12"/>
<path d="M19.1402 8.34055L14.3892 8.00039L18.8 3.58954L19.1402 8.34055Z" fill="#252525"/>
</g>
<defs>
<clipPath id="clip0_1504_8489">
<rect width="24" height="24" fill="white"/>
</clipPath>
</defs>
</svg>
