<svg width="24" height="25" viewBox="0 0 24 25" fill="none" xmlns="http://www.w3.org/2000/svg">
<g clip-path="url(#clip0_1504_8494)">
<path d="M17.3641 12.8258L17.365 12.8188L17.3657 12.8117C17.3916 12.5528 17.4124 12.3314 17.4124 12.1133C17.4124 11.9045 17.4021 11.6955 17.364 11.3993C17.3639 11.3988 17.3638 11.3983 17.3638 11.3977L17.2833 10.7481L17.7959 10.3449L17.7982 10.3431L18.7344 9.59934L19.1398 9.27727L18.8805 8.82908L18.268 7.77033L18.0077 7.32022L17.5251 7.514L16.4139 7.96024L16.4119 7.96104L15.8031 8.20799L15.2795 7.80521L15.2795 7.80517L15.2737 7.80078C14.8862 7.51013 14.4933 7.28363 14.0691 7.10607L14.0691 7.10603L14.063 7.10354L13.4556 6.85714L13.3641 6.21091L13.364 6.21041L13.1978 5.02966L13.1252 4.51328H12.6037H11.3874H10.8698L10.7939 5.02535L10.6189 6.2066L10.6189 6.2066L10.6184 6.21041L10.5268 6.85714L9.9194 7.10354L9.91939 7.10352L9.91514 7.10529C9.50197 7.2766 9.10045 7.51372 8.69299 7.81694L8.69298 7.81693L8.68949 7.81956L8.1732 8.20965L7.57837 7.96944L7.57728 7.969L6.46603 7.52275L5.98348 7.32897L5.72309 7.77908L5.11059 8.83783L4.8486 9.29069L5.26158 9.61189L6.20533 10.3459L6.71661 10.7481L6.63575 11.4008L6.63488 11.4078L6.63417 11.4148C6.60819 11.6747 6.58744 11.9042 6.58744 12.1133C6.58744 12.3219 6.60816 12.5518 6.63398 12.8186L6.63476 12.8266L6.63575 12.8346L6.71661 13.4873L6.20658 13.8884L6.20402 13.8904L5.26158 14.6234L4.8486 14.9446L5.11059 15.3975L5.72309 16.4562L5.98348 16.9063L6.46603 16.7126L7.57729 16.2663L7.57924 16.2655L8.188 16.0186L8.71162 16.4214L8.71159 16.4214L8.71744 16.4258C9.10498 16.7164 9.49783 16.9429 9.92201 17.1205L9.922 17.1205L9.92815 17.123L10.5355 17.3694L10.627 18.0157L10.6271 18.0161L10.7933 19.1969L10.866 19.7133H11.3874H12.6124H13.1301L13.206 19.2012L13.381 18.02L13.381 18.02L13.3815 18.0161L13.4731 17.3694L14.0805 17.123L14.0805 17.123L14.0848 17.1213C14.4979 16.95 14.8994 16.7128 15.3069 16.4096L15.3069 16.4096L15.3104 16.407L15.8267 16.0169L16.4215 16.2571L16.4226 16.2576L17.5339 16.7038L18.0164 16.8976L18.2768 16.4475L18.8893 15.3887L19.1513 14.9359L18.7383 14.6147L17.7959 13.8817L17.7933 13.8797L17.2833 13.4785L17.3641 12.8258Z" stroke="#252525" stroke-width="1.2"/>
<circle cx="12" cy="12.113" r="2.38016" stroke="#252525" stroke-width="1.2"/>
</g>
<defs>
<clipPath id="clip0_1504_8494">
<rect width="24" height="24" fill="white" transform="translate(0 0.113281)"/>
</clipPath>
</defs>
</svg>
