<svg width="25" height="25" viewBox="0 0 25 25" fill="none" xmlns="http://www.w3.org/2000/svg">
<g clip-path="url(#clip0_1446_6656)">
<path d="M2.25 8.60156C2.25 5.564 4.71243 3.10156 7.75 3.10156H15.25H15.75C18.7876 3.10156 21.25 5.564 21.25 8.60156V9.10156V16.6016C21.25 19.6391 18.7876 22.1016 15.75 22.1016H7.75C4.71243 22.1016 2.25 19.6391 2.25 16.6016V8.60156Z" fill="#2BB368"/>
<path fill-rule="evenodd" clip-rule="evenodd" d="M22.0529 5.68431C21.6513 6.65418 20.7033 7.2868 19.6516 7.2868C18.22 7.28681 17.0581 6.13144 17.0532 4.70304C17.0497 3.65364 17.6804 2.70559 18.6511 2.30153C19.6217 1.89746 20.7407 2.11709 21.4857 2.85787C22.2306 3.59864 22.4546 4.71445 22.0529 5.68431ZM20.774 4.70304C20.774 4.08452 20.2714 3.58311 19.6516 3.58311C19.0317 3.58311 18.5292 4.08452 18.5292 4.70304C18.5292 5.32156 19.0317 5.82296 19.6516 5.82296C20.2714 5.82296 20.774 5.32156 20.774 4.70304Z" fill="#200E32"/>
<path d="M13.6242 14.4567C13.8187 14.4277 13.9953 14.327 14.1191 14.1745L16.9472 10.5325C17.1207 10.2162 17.0375 9.82088 16.751 9.60101C16.4645 9.38113 16.0602 9.40222 15.7983 9.65072L13.4121 12.693L10.6989 10.5678C10.5431 10.4471 10.3456 10.3932 10.15 10.4181C9.9543 10.4429 9.77658 10.5443 9.65603 10.7001L6.76607 14.4567C6.52012 14.7789 6.57917 15.2385 6.89863 15.4884C7.05517 15.6068 7.25273 15.6575 7.44708 15.6294C7.64143 15.6012 7.81634 15.4964 7.93266 15.3385L10.3719 12.1728L13.0851 14.298C13.237 14.4193 13.4306 14.4763 13.6242 14.4567Z" fill="white"/>
<circle cx="19.75" cy="4.60156" r="3.25" fill="#2BB368" stroke="white" stroke-width="1.5"/>
</g>
<defs>
<clipPath id="clip0_1446_6656">
<rect width="24" height="24" fill="white" transform="translate(0.25 0.101562)"/>
</clipPath>
</defs>
</svg>
