<svg width="24" height="24" viewBox="0 0 24 24" fill="none" xmlns="http://www.w3.org/2000/svg">
<path fill-rule="evenodd" clip-rule="evenodd" d="M19.4106 7.18524C20.4624 7.18523 21.4104 6.55261 21.812 5.58275C22.2137 4.61288 21.9897 3.49708 21.2448 2.7563C20.4998 2.01553 19.3808 1.7959 18.4102 2.19996C17.4395 2.60403 16.8088 3.55208 16.8123 4.60148C16.8172 6.02987 17.9791 7.18525 19.4106 7.18524ZM19.4106 3.48155C20.0305 3.48155 20.533 3.98296 20.533 4.60148C20.533 5.21999 20.0305 5.7214 19.4106 5.7214C18.7908 5.7214 18.2882 5.21999 18.2882 4.60148C18.2882 3.98296 18.7908 3.48155 19.4106 3.48155ZM3.48495 15.9947C3.48495 18.9224 5.10226 20.5273 8.02757 20.5273C8.43558 20.5321 8.76518 20.861 8.76995 21.2681C8.76511 21.6737 8.43415 22 8.02757 22C4.3157 22 2.00903 19.6984 2.00903 15.9947V8.79017C2.00903 5.07766 4.3157 2.77609 8.02757 2.77609H14.5322C14.9387 2.78092 15.2658 3.11114 15.2657 3.51682C15.2657 3.71248 15.1873 3.89999 15.0478 4.03751C14.9083 4.17503 14.7194 4.2511 14.5234 4.24874H8.02757C5.10226 4.24874 3.48495 5.86249 3.48495 8.79017V15.9947ZM13.8782 14.0723C13.7544 14.2248 13.5778 14.3255 13.3833 14.3545C13.1897 14.3742 12.9961 14.3172 12.8442 14.1958L10.131 12.0706L7.69174 15.2364C7.57542 15.3943 7.40051 15.499 7.20616 15.5272C7.01181 15.5554 6.81425 15.5046 6.65772 15.3863C6.33825 15.1364 6.2792 14.6768 6.52515 14.3545L9.41511 10.5979C9.53567 10.4422 9.71338 10.3407 9.90903 10.3159C10.1047 10.2911 10.3022 10.345 10.458 10.4657L13.1712 12.5909L15.5574 9.54855C15.8193 9.30005 16.2236 9.27896 16.5101 9.49884C16.7965 9.71871 16.8798 10.114 16.7063 10.4304L13.8782 14.0723ZM20.5684 8.79017C20.1633 8.79017 19.8349 9.11786 19.8349 9.52209V15.9947C19.8084 18.9224 18.191 20.5273 15.2657 20.5273H12.3139C11.9059 20.5321 11.5763 20.861 11.5715 21.2681C11.5764 21.6737 11.9073 22 12.3139 22H15.2657C18.9776 22 21.2931 19.6984 21.2931 15.9947V9.52209C21.2931 9.12128 20.9701 8.795 20.5684 8.79017Z" fill="#252525"/>
</svg>
