<svg width="24" height="24" viewBox="0 0 24 24" fill="none" xmlns="http://www.w3.org/2000/svg">
<path fill-rule="evenodd" clip-rule="evenodd" d="M16 10.75H11V9.25H16V10.75ZM16 14.25H11V12.75H16V14.25ZM16 17.75H11V16.25H16V17.75ZM18 7.5H9C8.72386 7.5 8.5 7.72386 8.5 8V19C8.5 19.2761 8.72386 19.5 9 19.5H18C18.2761 19.5 18.5 19.2761 18.5 19V8C18.5 7.72386 18.2761 7.5 18 7.5ZM9 6C7.89543 6 7 6.89543 7 8V19C7 20.1046 7.89543 21 9 21H18C19.1046 21 20 20.1046 20 19V8C20 6.89543 19.1046 6 18 6H9Z" fill="#252525"/>
<path fill-rule="evenodd" clip-rule="evenodd" d="M3.25 5C3.25 3.48122 4.48122 2.25 6 2.25H16V3.75H6C5.30964 3.75 4.75 4.30964 4.75 5V16H3.25V5Z" fill="#252525"/>
</svg>
