<svg width="24" height="24" viewBox="0 0 24 24" fill="none" xmlns="http://www.w3.org/2000/svg">
<path fill-rule="evenodd" clip-rule="evenodd" d="M12 2C11.6662 2 11.3362 2.01636 11.0107 2.04831C5.95227 2.54506 2 6.81098 2 12C2 17.189 5.95227 21.4549 11.0107 21.9517C11.3362 21.9836 11.6662 22 12 22C12.3338 22 12.6638 21.9836 12.9893 21.9517C18.0477 21.4549 22 17.189 22 12C22 6.81098 18.0477 2.54506 12.9893 2.04831C12.6638 2.01636 12.3338 2 12 2ZM12.1712 3.50169C12.442 3.91528 12.7604 4.44777 13.0792 5.08541C13.5161 5.95917 13.9514 7.02532 14.2682 8.25H9.73182C10.0486 7.02532 10.4839 5.95917 10.9208 5.08541C11.2396 4.44777 11.558 3.91528 11.8288 3.50169C11.8857 3.50057 11.9428 3.5 12 3.5C12.0572 3.5 12.1143 3.50057 12.1712 3.50169ZM9.4228 9.75H14.5772C14.6866 10.4609 14.75 11.2126 14.75 12C14.75 12.7874 14.6866 13.5391 14.5772 14.25H9.4228C9.31339 13.5391 9.25 12.7874 9.25 12C9.25 11.2126 9.31339 10.4609 9.4228 9.75ZM8.187 8.25C8.5394 6.74707 9.06019 5.45256 9.57918 4.41459C9.69555 4.18185 9.81198 3.96171 9.92659 3.75468C7.48326 4.36714 5.4594 6.03717 4.36981 8.25H8.187ZM3.80098 9.75H7.90673C7.80701 10.4643 7.75 11.2157 7.75 12C7.75 12.7843 7.80701 13.5357 7.90673 14.25H3.80098C3.60477 13.5334 3.5 12.7789 3.5 12C3.5 11.2211 3.60477 10.4666 3.80098 9.75ZM4.36981 15.75C5.4594 17.9628 7.48326 19.6329 9.92659 20.2453C9.81197 20.0383 9.69555 19.8181 9.57918 19.5854C9.06019 18.5474 8.5394 17.2529 8.187 15.75H4.36981ZM9.73182 15.75C10.0486 16.9747 10.4839 18.0408 10.9208 18.9146C11.2396 19.5522 11.558 20.0847 11.8288 20.4983C11.8857 20.4994 11.9428 20.5 12 20.5C12.0572 20.5 12.1143 20.4994 12.1712 20.4983C12.442 20.0847 12.7604 19.5522 13.0792 18.9146C13.5161 18.0408 13.9514 16.9747 14.2682 15.75H9.73182ZM15.813 15.75C15.4606 17.2529 14.9398 18.5474 14.4208 19.5854C14.3045 19.8181 14.188 20.0383 14.0734 20.2453C16.5167 19.6329 18.5406 17.9628 19.6302 15.75H15.813ZM20.199 14.25C20.3952 13.5334 20.5 12.7789 20.5 12C20.5 11.2211 20.3952 10.4666 20.199 9.75H16.0933C16.193 10.4643 16.25 11.2157 16.25 12C16.25 12.7843 16.193 13.5357 16.0933 14.25H20.199ZM15.813 8.25C15.4606 6.74707 14.9398 5.45256 14.4208 4.41459C14.3045 4.18185 14.188 3.96171 14.0734 3.75468C16.5167 4.36714 18.5406 6.03717 19.6302 8.25H15.813Z" fill="#252525"/>
</svg>
